<svg width="480" height="480" viewBox="0 0 480 480" fill="none" xmlns="http://www.w3.org/2000/svg">
<path d="M480 240C480 372.548 372.548 480 240 480C107.452 480 0 372.548 0 240C0 107.452 107.452 0 240 0C372.548 0 480 107.452 480 240ZM60 240C60 339.411 140.589 420 240 420C339.411 420 420 339.411 420 240C420 140.589 339.411 60 240 60C140.589 60 60 140.589 60 240Z" fill="#DC1616"/>
<path fill-rule="evenodd" clip-rule="evenodd" d="M378.129 136.155C277.91 158.167 202.19 157.873 101.991 135.997C94.2163 146.297 87.5682 157.495 82.2298 169.408C156.364 252.304 192.46 319.279 221.094 411.778C227.303 412.453 233.611 412.8 240 412.8C245.912 412.8 251.755 412.503 257.514 411.923C285.52 316.666 323.166 249.842 397.438 168.672C392.185 157.094 385.692 146.199 378.129 136.155ZM240 294C273.137 294 300 267.137 300 234C300 200.863 273.137 174 240 174C206.863 174 180 200.863 180 234C180 267.137 206.863 294 240 294Z" fill="#DC1616"/>
</svg>
